# xmcd
#
# Track frame offsets:
#	150
#	15759
#	40250
#	55347
#	76962
#	98293
#	115525
#	132172
#	146560
#	159911
#	168797
#	182443
#
# Disc length: 2689 seconds
#
# Revision: 1
# Processed by: cddbd v1.5.2PL0 Copyright (c) Steve Scherf et al.
# Submitted via: audiograbber 1.83.01
#
DISCID=7b0a7f0c
DTITLE=Jimmy Fortune - I Believe
DYEAR=2005
DGENRE=Country
TTITLE0=Take Me There
TTITLE1=Be With Me
TTITLE2=He's Gettin' Me Ready
TTITLE3=I Believe
TTITLE4=Amazing Grace
TTITLE5=I Wrote It In Red
TTITLE6=He Touched Me
TTITLE7=That's What I Call Love
TTITLE8=Over The Sunset Mountains
TTITLE9=The Lord's Prayer
TTITLE10=I'll Fly Away
TTITLE11=How Great Thou Art
EXTD=
EXTT0=
EXTT1=
EXTT2=
EXTT3=
EXTT4=
EXTT5=
EXTT6=
EXTT7=
EXTT8=
EXTT9=
EXTT10=
EXTT11=
PLAYORDER=
